<?xml version="1.0" encoding="UTF-8" standalone="no"?>
<svg
   xmlns:dc="http://purl.org/dc/elements/1.1/"
   xmlns:cc="http://creativecommons.org/ns#"
   xmlns:rdf="http://www.w3.org/1999/02/22-rdf-syntax-ns#"
   xmlns:svg="http://www.w3.org/2000/svg"
   xmlns="http://www.w3.org/2000/svg"
   id="SVGRoot"
   version="1.1"
   viewBox="0 0 206.49043 131.11159"
   height="131.11159"
   width="206.49043">
  <defs
     id="defs2203" />
  <metadata
     id="metadata2206">
    <rdf:RDF>
      <cc:Work
         rdf:about="">
        <dc:format>image/svg+xml</dc:format>
        <dc:type
           rdf:resource="http://purl.org/dc/dcmitype/StillImage" />
        <dc:title></dc:title>
      </cc:Work>
    </rdf:RDF>
  </metadata>
  <g
     id="layer3"
     transform="matrix(0.35,0,0,0.35,-1.1977763,-6.3573886)">
    <path
       id="path2767"
       d="M 200,390 H 400 L 590,200 C 590,200 520.66132,67.199046 299.85616,67.199043 79.051,67.19904 10,200 10,200 Z"
       style="fill:none;fill-opacity:1;stroke:#000000;stroke-width:5.53700781;stroke-linecap:butt;stroke-linejoin:miter;stroke-miterlimit:4;stroke-dasharray:none;stroke-opacity:1" />
  </g>
  <g
     id="layer2"
     transform="translate(-195.16333,-139.91044)" />
  <g
     id="layer1"
     transform="matrix(0.35,0,0,0.35,-1.1977763,-6.3573886)">
    <g
       id="text2771"
       style="font-style:normal;font-weight:normal;font-size:40px;line-height:1.25;font-family:sans-serif;letter-spacing:0px;word-spacing:0px;fill:#000000;fill-opacity:1;stroke:none"
       aria-label="0">
      <path
         id="path847"
         style="font-size:42.66666794px;fill:#000000;fill-opacity:1"
         d="m 534.77753,160.36328 q -3.25,0 -4.89584,3.20833 -1.625,3.1875 -1.625,9.60417 0,6.39583 1.625,9.60416 1.64584,3.1875 4.89584,3.1875 3.27083,0 4.89583,-3.1875 1.64583,-3.20833 1.64583,-9.60416 0,-6.41667 -1.64583,-9.60417 -1.625,-3.20833 -4.89583,-3.20833 z m 0,-3.33334 q 5.22916,0 7.97916,4.14584 2.77084,4.125 2.77084,12 0,7.85416 -2.77084,12 -2.75,4.125 -7.97916,4.125 -5.22917,0 -8,-4.125 -2.75,-4.14584 -2.75,-12 0,-7.875 2.75,-12 2.77083,-4.14584 8,-4.14584 z" />
    </g>
    <g
       id="text2771-7"
       style="font-style:normal;font-weight:normal;font-size:40px;line-height:1.25;font-family:sans-serif;letter-spacing:0px;word-spacing:0px;fill:#000000;fill-opacity:1;stroke:none"
       aria-label="5">
      <path
         id="path850"
         style="font-size:42.66666794px"
         d="m 436.03532,108.14893 h 16.52083 v 3.54167 h -12.66666 v 7.625 q 0.91666,-0.3125 1.83333,-0.45834 0.91667,-0.16666 1.83333,-0.16666 5.20834,0 8.25,2.85416 3.04167,2.85417 3.04167,7.72917 0,5.02083 -3.125,7.8125 -3.125,2.77083 -8.8125,2.77083 -1.95833,0 -4,-0.33333 -2.02083,-0.33333 -4.1875,-1 v -4.22917 q 1.875,1.02084 3.875,1.52084 2,0.5 4.22917,0.5 3.60416,0 5.70833,-1.89584 2.10417,-1.89583 2.10417,-5.14583 0,-3.25 -2.10417,-5.14583 -2.10417,-1.89584 -5.70833,-1.89584 -1.6875,0 -3.375,0.375 -1.66667,0.375 -3.41667,1.16667 z" />
    </g>
    <g
       id="text2771-3"
       style="font-style:normal;font-weight:normal;font-size:40px;line-height:1.25;font-family:sans-serif;letter-spacing:0px;word-spacing:0px;fill:#000000;fill-opacity:1;stroke:none"
       aria-label="10">
      <path
         id="path853"
         style="font-size:42.66666794px"
         d="m 328.5427,115.78956 h 6.875 V 92.060396 l -7.47916,1.5 v -3.833333 l 7.4375,-1.5 h 4.20833 v 27.562497 h 6.875 v 3.54167 H 328.5427 Z" />
      <path
         id="path855"
         style="font-size:42.66666794px"
         d="m 363.98021,90.997896 q -3.25,0 -4.89584,3.208333 -1.625,3.187501 -1.625,9.604171 0,6.39583 1.625,9.60416 1.64584,3.1875 4.89584,3.1875 3.27083,0 4.89583,-3.1875 1.64583,-3.20833 1.64583,-9.60416 0,-6.41667 -1.64583,-9.604171 -1.625,-3.208333 -4.89583,-3.208333 z m 0,-3.333333 q 5.22916,0 7.97916,4.145833 2.77084,4.125 2.77084,12.000004 0,7.85416 -2.77084,12 -2.75,4.125 -7.97916,4.125 -5.22917,0 -8,-4.125 -2.75,-4.14584 -2.75,-12 0,-7.875004 2.75,-12.000004 2.77083,-4.145833 8,-4.145833 z" />
    </g>
    <g
       id="text2771-2"
       style="font-style:normal;font-weight:normal;font-size:40px;line-height:1.25;font-family:sans-serif;letter-spacing:0px;word-spacing:0px;fill:#000000;fill-opacity:1;stroke:none"
       aria-label="15">
      <path
         id="path858"
         style="font-size:42.66666794px"
         d="m 226.10417,116.67709 h 6.875 V 92.947923 L 225.5,94.447924 V 90.61459 l 7.4375,-1.5 h 4.20833 v 27.5625 h 6.875 v 3.54167 h -17.91666 z" />
      <path
         id="path860"
         style="font-size:42.66666794px"
         d="m 252.58333,89.11459 h 16.52084 v 3.541667 H 256.4375 v 7.625003 q 0.91667,-0.312503 1.83333,-0.458336 0.91667,-0.166667 1.83334,-0.166667 5.20833,0 8.25,2.854163 3.04167,2.85417 3.04167,7.72917 0,5.02083 -3.125,7.8125 -3.125,2.77083 -8.81251,2.77083 -1.95833,0 -4,-0.33333 -2.02083,-0.33333 -4.1875,-1 v -4.22917 q 1.875,1.02084 3.875,1.52084 2,0.5 4.22917,0.5 3.60417,0 5.70834,-1.89584 2.10416,-1.89583 2.10416,-5.14583 0,-3.25 -2.10416,-5.14583 -2.10417,-1.89584 -5.70834,-1.89584 -1.6875,0 -3.375,0.375 -1.66667,0.375 -3.41667,1.16667 z" />
    </g>
    <g
       id="text2771-1"
       style="font-style:normal;font-weight:normal;font-size:40px;line-height:1.25;font-family:sans-serif;letter-spacing:0px;word-spacing:0px;fill:#000000;fill-opacity:1;stroke:none"
       aria-label="20">
      <path
         id="path863"
         style="font-size:42.66666794px"
         d="m 139.9375,140.11458 h 14.6875 v 3.54167 h -19.75 v -3.54167 q 2.39583,-2.47916 6.52083,-6.64583 4.14584,-4.1875 5.20834,-5.39583 2.02083,-2.27084 2.8125,-3.83334 0.8125,-1.58333 0.8125,-3.10416 0,-2.47917 -1.75,-4.04167 -1.72917,-1.5625 -4.52084,-1.5625 -1.97916,0 -4.1875,0.6875 -2.1875,0.6875 -4.6875,2.08333 v -4.25 q 2.54167,-1.02083 4.75,-1.54166 2.20834,-0.52084 4.04167,-0.52084 4.83333,0 7.70833,2.41667 2.875,2.41667 2.875,6.45833 0,1.91667 -0.72916,3.64584 -0.70834,1.70833 -2.60417,4.04166 -0.52083,0.60417 -3.3125,3.5 -2.79167,2.875 -7.875,8.0625 z" />
      <path
         id="path865"
         style="font-size:42.66666794px"
         d="m 172.47917,115.32292 q -3.25,0 -4.89584,3.20833 -1.625,3.1875 -1.625,9.60417 0,6.39583 1.625,9.60416 1.64584,3.1875 4.89584,3.1875 3.27083,0 4.89583,-3.1875 1.64584,-3.20833 1.64584,-9.60416 0,-6.41667 -1.64584,-9.60417 -1.625,-3.20833 -4.89583,-3.20833 z m 0,-3.33334 q 5.22917,0 7.97917,4.14584 2.77083,4.125 2.77083,12 0,7.85416 -2.77083,12 -2.75,4.125 -7.97917,4.125 -5.22917,0 -8,-4.125 -2.75,-4.14584 -2.75,-12 0,-7.875 2.75,-12 2.77083,-4.14584 8,-4.14584 z" />
    </g>
    <g
       id="text2771-70"
       style="font-style:normal;font-weight:normal;font-size:40px;line-height:1.25;font-family:sans-serif;letter-spacing:0px;word-spacing:0px;fill:#000000;fill-opacity:1;stroke:none"
       aria-label="25">
      <path
         id="path868"
         style="font-size:42.66666794px"
         d="m 60.249993,197.53646 h 14.6875 v 3.54166 H 55.187492 v -3.54166 q 2.395834,-2.47917 6.520834,-6.64584 4.145833,-4.1875 5.208333,-5.39583 2.020834,-2.27083 2.812501,-3.83333 0.8125,-1.58334 0.8125,-3.10417 0,-2.47917 -1.75,-4.04167 -1.729167,-1.5625 -4.520834,-1.5625 -1.979167,0 -4.1875,0.6875 -2.1875,0.6875 -4.6875,2.08334 v -4.25 q 2.541667,-1.02084 4.75,-1.54167 2.208333,-0.52083 4.041667,-0.52083 4.833333,0 7.708333,2.41666 2.875,2.41667 2.875,6.45834 0,1.91666 -0.729166,3.64583 -0.708334,1.70833 -2.604167,4.04167 -0.520833,0.60416 -3.3125,3.5 -2.791667,2.875 -7.875,8.0625 z" />
      <path
         id="path870"
         style="font-size:42.66666794px"
         d="m 83.833327,169.97396 h 16.520833 v 3.54166 H 87.687494 v 7.625 q 0.916667,-0.3125 1.833333,-0.45833 0.916667,-0.16667 1.833334,-0.16667 5.208333,0 8.25,2.85417 3.041669,2.85417 3.041669,7.72917 0,5.02083 -3.125002,7.8125 -3.125001,2.77083 -8.812501,2.77083 -1.958333,0 -4,-0.33333 -2.020833,-0.33334 -4.1875,-1 v -4.22917 q 1.875,1.02083 3.875,1.52083 2,0.5 4.229167,0.5 3.604167,0 5.708333,-1.89583 2.104167,-1.89583 2.104167,-5.14583 0,-3.25 -2.104167,-5.14584 -2.104166,-1.89583 -5.708333,-1.89583 -1.6875,0 -3.375,0.375 -1.666667,0.375 -3.416667,1.16667 z" />
    </g>
    <path
       id="path2823"
       d="m 303.08146,369.88459 3.51562,-4.6875 250.93894,-220.03653"
       style="fill:none;stroke:#b50000;stroke-width:9.69448853;stroke-linecap:butt;stroke-linejoin:miter;stroke-miterlimit:4;stroke-dasharray:none;stroke-opacity:1" />
    <g
       id="text2771-37"
       style="font-style:normal;font-weight:normal;font-size:40px;line-height:1.25;font-family:sans-serif;letter-spacing:0px;word-spacing:0px;fill:#b50000;fill-opacity:1;stroke:none"
       aria-label="0">
      <path
         id="path873"
         style="font-size:42.66666794px;fill:#b50000;fill-opacity:1"
         d="m 573.33411,119.03646 q -3.25,0 -4.89584,3.20834 -1.625,3.1875 -1.625,9.60416 0,6.39584 1.625,9.60417 1.64584,3.1875 4.89584,3.1875 3.27083,0 4.89583,-3.1875 1.64583,-3.20833 1.64583,-9.60417 0,-6.41666 -1.64583,-9.60416 -1.625,-3.20834 -4.89583,-3.20834 z m 0,-3.33333 q 5.22916,0 7.97916,4.14583 2.77084,4.125 2.77084,12 0,7.85417 -2.77084,12 -2.75,4.125 -7.97916,4.125 -5.22917,0 -8,-4.125 -2.75,-4.14583 -2.75,-12 0,-7.875 2.75,-12 2.77083,-4.14583 8,-4.14583 z" />
    </g>
    <g
       id="text2771-7-2"
       style="font-style:normal;font-weight:normal;font-size:40px;line-height:1.25;font-family:sans-serif;letter-spacing:0px;word-spacing:0px;fill:#000000;fill-opacity:1;stroke:none"
       aria-label="5">
      <path
         id="path876"
         style="font-size:42.66666794px"
         d="m 468.79139,41.134251 h 16.52084 v 3.541667 h -12.66667 v 7.625 q 0.91667,-0.3125 1.83333,-0.458333 0.91667,-0.166667 1.83334,-0.166667 5.20833,0 8.25,2.854167 3.04166,2.854166 3.04166,7.729167 0,5.020833 -3.125,7.8125 -3.125,2.770833 -8.8125,2.770833 -1.95833,0 -4,-0.333333 -2.02083,-0.333333 -4.1875,-1 v -4.229167 q 1.875,1.020833 3.875,1.520833 2,0.5 4.22917,0.5 3.60417,0 5.70833,-1.895833 2.10417,-1.895833 2.10417,-5.145833 0,-3.25 -2.10417,-5.145834 -2.10416,-1.895833 -5.70833,-1.895833 -1.6875,0 -3.375,0.375 -1.66667,0.375 -3.41667,1.166666 z" />
    </g>
    <g
       id="text2771-3-8"
       style="font-style:normal;font-weight:normal;font-size:40px;line-height:1.25;font-family:sans-serif;letter-spacing:0px;word-spacing:0px;fill:#000000;fill-opacity:1;stroke:none"
       aria-label="10">
      <path
         id="path879"
         style="font-size:42.66666794px"
         d="m 343.06867,46.288968 h 6.87501 V 22.559801 l -7.47917,1.5 v -3.833333 l 7.4375,-1.500001 h 4.20833 v 27.562501 h 6.875 v 3.541667 h -17.91667 z" />
      <path
         id="path881"
         style="font-size:42.66666794px"
         d="m 378.50618,21.497301 q -3.25,0 -4.89584,3.208333 -1.625,3.1875 -1.625,9.604167 0,6.395834 1.625,9.604167 1.64584,3.1875 4.89584,3.1875 3.27083,0 4.89583,-3.1875 1.64583,-3.208333 1.64583,-9.604167 0,-6.416667 -1.64583,-9.604167 -1.625,-3.208333 -4.89583,-3.208333 z m 0,-3.333334 q 5.22916,0 7.97916,4.145834 2.77084,4.125 2.77084,12 0,7.854167 -2.77084,12.000001 -2.75,4.125 -7.97916,4.125 -5.22917,0 -8,-4.125 -2.75,-4.145834 -2.75,-12.000001 0,-7.875 2.75,-12 2.77083,-4.145834 8,-4.145834 z" />
    </g>
    <g
       id="text2771-2-7"
       style="font-style:normal;font-weight:normal;font-size:40px;line-height:1.25;font-family:sans-serif;letter-spacing:0px;word-spacing:0px;fill:#000000;fill-opacity:1;stroke:none"
       aria-label="15">
      <path
         id="path884"
         style="font-size:42.66666794px"
         d="m 210.79907,47.176496 h 6.875 V 23.447328 l -7.47917,1.5 v -3.833333 l 7.4375,-1.5 h 4.20833 v 27.562501 h 6.875 v 3.541667 h -17.91666 z" />
      <path
         id="path886"
         style="font-size:42.66666794px"
         d="m 237.27824,19.613995 h 16.52083 v 3.541667 H 241.1324 v 7.625 q 0.91667,-0.3125 1.83334,-0.458333 0.91666,-0.166667 1.83333,-0.166667 5.20833,0 8.25,2.854167 3.04167,2.854166 3.04167,7.729167 0,5.020833 -3.125,7.8125 -3.125,2.770833 -8.8125,2.770833 -1.95834,0 -4,-0.333333 -2.02084,-0.333333 -4.1875,-1 v -4.229167 q 1.875,1.020833 3.875,1.520833 2,0.5 4.22916,0.5 3.60417,0 5.70834,-1.895833 2.10416,-1.895833 2.10416,-5.145833 0,-3.250001 -2.10416,-5.145834 -2.10417,-1.895833 -5.70834,-1.895833 -1.6875,0 -3.375,0.375 -1.66666,0.375 -3.41666,1.166666 z" />
    </g>
    <g
       id="text2771-1-6"
       style="font-style:normal;font-weight:normal;font-size:40px;line-height:1.25;font-family:sans-serif;letter-spacing:0px;word-spacing:0px;fill:#000000;fill-opacity:1;stroke:none"
       aria-label="20">
      <path
         id="path889"
         style="font-size:42.66666794px"
         d="m 93.144066,75.585828 h 14.687504 v 3.541667 H 88.081566 v -3.541667 q 2.395833,-2.479167 6.520833,-6.645833 4.145834,-4.187501 5.208334,-5.395834 2.020837,-2.270833 2.812497,-3.833333 0.8125,-1.583334 0.8125,-3.104167 0,-2.479167 -1.75,-4.041667 -1.729164,-1.5625 -4.52083,-1.5625 -1.979167,0 -4.187501,0.6875 -2.1875,0.6875 -4.6875,2.083333 v -4.25 q 2.541667,-1.020833 4.75,-1.541666 2.208334,-0.520834 4.041667,-0.520834 4.833334,0 7.708334,2.416667 2.875,2.416667 2.875,6.458333 0,1.916667 -0.72917,3.645834 -0.70833,1.708333 -2.60416,4.041667 -0.52084,0.604166 -3.3125,3.5 -2.79167,2.875 -7.875004,8.0625 z" />
      <path
         id="path891"
         style="font-size:42.66666794px"
         d="m 125.68573,50.794161 q -3.25,0 -4.89583,3.208333 -1.625,3.1875 -1.625,9.604167 0,6.395834 1.625,9.604167 1.64583,3.1875 4.89583,3.1875 3.27084,0 4.89584,-3.1875 1.64583,-3.208333 1.64583,-9.604167 0,-6.416667 -1.64583,-9.604167 -1.625,-3.208333 -4.89584,-3.208333 z m 0,-3.333334 q 5.22917,0 7.97917,4.145834 2.77083,4.125 2.77083,12 0,7.854167 -2.77083,12 -2.75,4.125 -7.97917,4.125 -5.22916,0 -8,-4.125 -2.75,-4.145833 -2.75,-12 0,-7.875 2.75,-12 2.77084,-4.145834 8,-4.145834 z" />
    </g>
    <g
       id="text2771-70-2"
       style="font-style:normal;font-weight:normal;font-size:40px;line-height:1.25;font-family:sans-serif;letter-spacing:0px;word-spacing:0px;fill:#000000;fill-opacity:1;stroke:none"
       aria-label="25">
      <path
         id="path894"
         style="font-size:42.66666794px"
         d="M 8.4847181,143.78002 H 23.172219 v 3.54167 H 3.422218 v -3.54167 q 2.3958334,-2.47917 6.5208335,-6.64583 4.1458335,-4.1875 5.2083335,-5.39584 2.020833,-2.27083 2.8125,-3.83333 0.8125,-1.58333 0.8125,-3.10417 0,-2.47916 -1.75,-4.04167 -1.729167,-1.5625 -4.520833,-1.5625 -1.979167,0 -4.1875005,0.6875 -2.1875001,0.6875 -4.6875002,2.08334 v -4.25 q 2.5416668,-1.02084 4.7500002,-1.54167 2.2083335,-0.52083 4.0416665,-0.52083 4.833334,0 7.708334,2.41666 2.875,2.41667 2.875,6.45834 0,1.91667 -0.729167,3.64583 -0.708333,1.70834 -2.604167,4.04167 -0.520833,0.60417 -3.3125,3.5 -2.791666,2.875 -7.8749999,8.0625 z" />
      <path
         id="path896"
         style="font-size:42.66666794px"
         d="m 32.068053,116.21752 h 16.520833 v 3.54166 H 35.922219 v 7.62501 q 0.916667,-0.3125 1.833334,-0.45834 0.916667,-0.16666 1.833333,-0.16666 5.208334,0 8.25,2.85416 3.041667,2.85417 3.041667,7.72917 0,5.02083 -3.125,7.8125 -3.125,2.77083 -8.8125,2.77083 -1.958334,0 -4,-0.33333 -2.020834,-0.33333 -4.1875,-1 v -4.22917 q 1.875,1.02084 3.875,1.52084 2,0.5 4.229167,0.5 3.604166,0 5.708333,-1.89584 2.104167,-1.89583 2.104167,-5.14583 0,-3.25 -2.104167,-5.14583 -2.104167,-1.89584 -5.708333,-1.89584 -1.687501,0 -3.375001,0.375 -1.666666,0.375 -3.416666,1.16667 z" />
    </g>
    <path
       id="path2909"
       d="m 351.75801,150.57913 c 15.88327,0.13812 31.76555,0.27623 48.13083,5.80057 16.36528,5.52435 33.21431,16.43479 50.06309,27.34506"
       style="fill:none;fill-opacity:1;stroke:#b50000;stroke-width:2.51338577;stroke-linecap:butt;stroke-linejoin:miter;stroke-miterlimit:4;stroke-dasharray:none;stroke-opacity:1" />
    <path
       id="path2913"
       d="m 447.05169,159.69418 2.90024,24.03058 -27.30426,2.27586 z"
       style="fill:none;stroke:#b50000;stroke-width:1px;stroke-linecap:butt;stroke-linejoin:miter;stroke-opacity:1" />
    <path
       id="path2915"
       d="m 426.19344,182.79251 c 0,0 1.71577,-2.27359 4.04189,-4.66684 l 4.40809,-4.53529 2.07931,0.96141 c 2.76234,1.77835 12.39245,8.7533 12.29137,8.86071 0,0 -4.55975,0.64758 -10.57406,1.30676 -5.83288,0.6393 -15.79237,1.34865 -15.79237,1.28136 z"
       style="fill:#b50000;fill-opacity:1;stroke:none;stroke-width:0.20748642;stroke-linecap:butt;stroke-miterlimit:4;stroke-dasharray:none;stroke-opacity:1" />
    <path
       id="path2917"
       d="m 447.86311,182.3618 c -1.68223,-0.52778 -9.46885,-6.75125 -11.14038,-7.81001 l -2.07931,-0.96141 1.52281,-2.22476 c 5.10883,-5.55993 10.5191,-10.90983 10.55623,-10.79217 0.1056,0.33455 2.99935,22.37006 2.94033,22.42908 -0.036,0.036 -1.46134,-0.37863 -1.79968,-0.64073 z"
       style="fill:#b50000;fill-opacity:1;stroke:none;stroke-width:0.20748642;stroke-linecap:butt;stroke-miterlimit:4;stroke-dasharray:none;stroke-opacity:1" />
    <path
       id="path2919"
       d="M 306.59708,365.19709 499.99142,195.37562"
       style="fill:#898989;fill-opacity:1;stroke:#919191;stroke-width:10.82834625;stroke-linecap:butt;stroke-linejoin:miter;stroke-miterlimit:4;stroke-dasharray:none;stroke-opacity:1" />
    <path
       id="path2825"
       d="m 333.1136,363.53983 a 20.716019,20.716019 0 0 1 -20.71602,20.71601 20.716019,20.716019 0 0 1 -20.71602,-20.71601 20.716019,20.716019 0 0 1 20.71602,-20.71602 20.716019,20.716019 0 0 1 20.71602,20.71602 z"
       style="fill:#000000;fill-opacity:1;stroke:none;stroke-width:14.68861961;stroke-miterlimit:4;stroke-dasharray:none;stroke-opacity:1" />
  </g>
</svg>
