<?xml version="1.0" encoding="UTF-8" standalone="no"?>
<svg
   xmlns:dc="http://purl.org/dc/elements/1.1/"
   xmlns:cc="http://creativecommons.org/ns#"
   xmlns:rdf="http://www.w3.org/1999/02/22-rdf-syntax-ns#"
   xmlns:svg="http://www.w3.org/2000/svg"
   xmlns="http://www.w3.org/2000/svg"
   width="16px"
   height="16px"
   viewBox="0 0 16 16"
   version="1.1"
   id="SVGRoot">
  <defs
     id="defs815" />
  <metadata
     id="metadata818">
    <rdf:RDF>
      <cc:Work
         rdf:about="">
        <dc:format>image/svg+xml</dc:format>
        <dc:type
           rdf:resource="http://purl.org/dc/dcmitype/StillImage" />
        <dc:title></dc:title>
      </cc:Work>
    </rdf:RDF>
  </metadata>
  <g
     id="layer1">
    <g
       id="text1460"
       style="font-style:normal;font-weight:normal;font-size:8px;line-height:1.25;font-family:sans-serif;letter-spacing:0px;word-spacing:0px;fill:#000000;fill-opacity:1;stroke:none"
       aria-label="N-b">
      <path
         id="path815"
         style=""
         d="m 1.6347656,6.1445303 h 1.0625 L 5.2832031,11.023437 V 6.1445303 h 0.765625 v 5.8320317 h -1.0625 L 2.4003906,7.0976553 v 4.8789067 h -0.765625 z" />
      <path
         id="path817"
         style=""
         d="M 7.2246094,9.4648428 H 9.3300781 V 10.105468 H 7.2246094 Z" />
      <path
         id="path819"
         style=""
         d="m 13.619141,9.7929678 q 0,-0.7929688 -0.328125,-1.2421875 -0.324219,-0.453125 -0.894532,-0.453125 -0.570312,0 -0.898437,0.453125 -0.324219,0.4492187 -0.324219,1.2421875 0,0.7929692 0.324219,1.2460942 0.328125,0.449218 0.898437,0.449218 0.570313,0 0.894532,-0.449218 0.328125,-0.453125 0.328125,-1.2460942 z M 11.173828,8.265624 q 0.226563,-0.390625 0.570313,-0.578125 0.347656,-0.1914062 0.828125,-0.1914062 0.796875,0 1.292968,0.6328125 0.5,0.6328125 0.5,1.6640625 0,1.0312502 -0.5,1.6640622 -0.496093,0.632813 -1.292968,0.632813 -0.480469,0 -0.828125,-0.1875 -0.34375,-0.191406 -0.570313,-0.582031 v 0.65625 H 10.451172 V 5.8984365 h 0.722656 z" />
    </g>
  </g>
</svg>
