<?xml version="1.0" encoding="UTF-8" standalone="no"?>
<svg
   xmlns:dc="http://purl.org/dc/elements/1.1/"
   xmlns:cc="http://creativecommons.org/ns#"
   xmlns:rdf="http://www.w3.org/1999/02/22-rdf-syntax-ns#"
   xmlns:svg="http://www.w3.org/2000/svg"
   xmlns="http://www.w3.org/2000/svg"
   id="SVGRoot"
   version="1.1"
   viewBox="0 0 16 16"
   height="16px"
   width="16px">
  <defs
     id="defs815" />
  <metadata
     id="metadata818">
    <rdf:RDF>
      <cc:Work
         rdf:about="">
        <dc:format>image/svg+xml</dc:format>
        <dc:type
           rdf:resource="http://purl.org/dc/dcmitype/StillImage" />
        <dc:title></dc:title>
      </cc:Work>
    </rdf:RDF>
  </metadata>
  <g
     id="layer1"
     transform="matrix(1.4350326,0,0,1,-3.4802608,-0.7)">
    <path
       id="path1418"
       d="m 4.859375,8.7 h 6.28125"
       style="fill:none;stroke:#000000;stroke-width:0.62362206;stroke-linecap:butt;stroke-linejoin:miter;stroke-miterlimit:4;stroke-dasharray:none;stroke-opacity:1" />
  </g>
  <g
     id="text2261"
     style="font-style:normal;font-weight:normal;font-size:8px;line-height:1;font-family:sans-serif;text-align:center;letter-spacing:0px;word-spacing:0px;text-anchor:middle;fill:#000000;fill-opacity:1;stroke:none"
     aria-label="1?s">
    <path
       id="path817"
       style=""
       d="M 6.3554687,6.1953125 H 7.6445312 V 1.7460937 L 6.2421875,2.0273438 V 1.3085937 l 1.3945312,-0.28125 H 8.4257813 V 6.1953125 H 9.7148438 V 6.859375 H 6.3554687 Z" />
    <path
       id="path819"
       style=""
       d="m 5.2265625,13.867188 h 0.7929687 v 0.992187 H 5.2265625 Z M 5.9960937,13.292969 H 5.25 v -0.601563 q 0,-0.394531 0.109375,-0.648437 0.109375,-0.253906 0.4609375,-0.589844 L 6.171875,11.105469 Q 6.3945312,10.898438 6.4921875,10.714844 6.59375,10.53125 6.59375,10.339844 6.59375,9.9921875 6.3359375,9.7773438 6.0820312,9.5625 5.6601562,9.5625 5.3515625,9.5625 5,9.6992188 4.6523437,9.8359375 4.2734375,10.097656 V 9.3632813 Q 4.640625,9.140625 5.015625,9.03125 5.3945312,8.921875 5.796875,8.921875 q 0.71875,0 1.1523437,0.3789063 0.4375,0.3789062 0.4375,0.9999997 0,0.296875 -0.140625,0.566407 -0.140625,0.265625 -0.4921875,0.601562 l -0.34375,0.335938 q -0.1835937,0.183593 -0.2617187,0.289062 -0.074219,0.101563 -0.1054688,0.199219 -0.023437,0.08203 -0.035156,0.199219 -0.011719,0.117187 -0.011719,0.320312 z" />
    <path
       id="path821"
       style=""
       d="m 11.492188,10.613281 v 0.679688 q -0.304688,-0.15625 -0.632813,-0.234375 -0.328125,-0.07813 -0.679687,-0.07813 -0.5351567,0 -0.804688,0.164062 -0.265625,0.164063 -0.265625,0.492188 0,0.25 0.1914063,0.394531 0.1914062,0.140625 0.7695317,0.269531 l 0.246093,0.05469 q 0.765625,0.164062 1.085938,0.464844 0.324219,0.296875 0.324219,0.832031 0,0.609375 -0.484375,0.964844 -0.480469,0.355468 -1.3242192,0.355468 -0.3515625,0 -0.734375,-0.07031 -0.3789063,-0.06641 -0.8007813,-0.203125 v -0.742188 q 0.3984375,0.207032 0.7851563,0.3125 0.3867187,0.101563 0.765625,0.101563 0.5078122,0 0.7812502,-0.171875 0.273437,-0.175781 0.273437,-0.492188 0,-0.292968 -0.199218,-0.449218 -0.195313,-0.15625 -0.8632817,-0.300782 l -0.25,-0.05859 Q 9.0078125,12.757813 8.7109375,12.46875 q -0.296875,-0.292969 -0.296875,-0.800781 0,-0.617188 0.4375,-0.953125 0.4375,-0.335938 1.2421875,-0.335938 0.398438,0 0.75,0.05859 0.351563,0.05859 0.648438,0.175781 z" />
  </g>
</svg>
