<?xml version="1.0" encoding="UTF-8" standalone="no"?>
<svg
   xmlns:dc="http://purl.org/dc/elements/1.1/"
   xmlns:cc="http://creativecommons.org/ns#"
   xmlns:rdf="http://www.w3.org/1999/02/22-rdf-syntax-ns#"
   xmlns:svg="http://www.w3.org/2000/svg"
   xmlns="http://www.w3.org/2000/svg"
   width="16px"
   height="16px"
   viewBox="0 0 16 16"
   version="1.1"
   id="SVGRoot">
  <defs
     id="defs815" />
  <metadata
     id="metadata818">
    <rdf:RDF>
      <cc:Work
         rdf:about="">
        <dc:format>image/svg+xml</dc:format>
        <dc:type
           rdf:resource="http://purl.org/dc/dcmitype/StillImage" />
        <dc:title></dc:title>
      </cc:Work>
    </rdf:RDF>
  </metadata>
  <path
     id="path831"
     d="M 1,15 H 15 V 4.8474576 L 12.5,1 H 1 v 3.7028847 z"
     style="fill:none;stroke:#808080;stroke-width:1px;stroke-linecap:butt;stroke-linejoin:miter;stroke-opacity:1" />
  <path
     id="path4536"
     d="M 1,4.7028847 H 14.881356"
     style="fill:none;stroke:#808080;stroke-width:1px;stroke-linecap:butt;stroke-linejoin:miter;stroke-opacity:1" />
  <path
     id="path4538"
     d="M 9.9322034,9.6597967 A 1.9322034,1.9322034 0 0 1 8,11.592 1.9322034,1.9322034 0 0 1 6.0677966,9.6597967 1.9322034,1.9322034 0 0 1 8,7.7275933 1.9322034,1.9322034 0 0 1 9.9322034,9.6597967 Z"
     style="fill:none;fill-opacity:1;stroke:#000000;stroke-width:0.81599998;stroke-linecap:round;stroke-linejoin:bevel;stroke-miterlimit:4;stroke-dasharray:none;stroke-opacity:1" />
  <path
     id="path4607"
     d="M 1.51576,2.840238 V 1.4979336 l 5.3512403,5.316e-4 5.3512407,5.316e-4 0.826955,1.2733523 c 0.454825,0.7003437 0.846891,1.3041415 0.871256,1.3417727 l 0.0443,0.068421 H 7.7382565 1.51576 Z"
     style="fill:#808080;fill-opacity:1;stroke:#808080;stroke-width:0.22;stroke-linecap:round;stroke-linejoin:bevel;stroke-miterlimit:4;stroke-dasharray:none;stroke-opacity:1" />
  <path
     id="rect4609"
     d="M 1.5,1.25 H 12.166526 V 4.5 H 1.5 Z"
     style="fill:#dbdbdb;fill-opacity:1;stroke:none;stroke-width:0.22325495;stroke-linecap:round;stroke-linejoin:bevel;stroke-miterlimit:4;stroke-dasharray:none;stroke-opacity:1" />
  <path
     id="path4611"
     d="M 10.067283,3.5597146 V 1.0189241"
     style="fill:none;stroke:#808080;stroke-width:1.39999998;stroke-linecap:butt;stroke-linejoin:miter;stroke-miterlimit:4;stroke-dasharray:none;stroke-opacity:1" />
</svg>
