<?xml version="1.0" encoding="UTF-8" standalone="no"?>
<svg
   xmlns:dc="http://purl.org/dc/elements/1.1/"
   xmlns:cc="http://creativecommons.org/ns#"
   xmlns:rdf="http://www.w3.org/1999/02/22-rdf-syntax-ns#"
   xmlns:svg="http://www.w3.org/2000/svg"
   xmlns="http://www.w3.org/2000/svg"
   width="16px"
   height="16px"
   viewBox="0 0 16 16"
   version="1.1"
   id="SVGRoot">
  <defs
     id="defs815" />
  <metadata
     id="metadata818">
    <rdf:RDF>
      <cc:Work
         rdf:about="">
        <dc:format>image/svg+xml</dc:format>
        <dc:type
           rdf:resource="http://purl.org/dc/dcmitype/StillImage" />
        <dc:title></dc:title>
      </cc:Work>
    </rdf:RDF>
  </metadata>
  <g
     id="layer1">
    <path
       style="fill:none;stroke:#000000;stroke-width:0.7;stroke-linecap:butt;stroke-linejoin:miter;stroke-miterlimit:4;stroke-dasharray:none;stroke-opacity:1"
       d="M 0.5584062,14.538626 H 15.744053"
       id="path1500" />
    <path
       style="fill:none;stroke:#000000;stroke-width:0.7;stroke-linecap:butt;stroke-linejoin:miter;stroke-miterlimit:4;stroke-dasharray:none;stroke-opacity:1"
       d="M 1.2393726,15.2155 V 0.3965878"
       id="path1502" />
    <g
       id="text1506"
       style="font-style:normal;font-weight:normal;font-size:1.34843183px;line-height:1.25;font-family:sans-serif;letter-spacing:0px;word-spacing:0px;fill:#000000;fill-opacity:1;stroke:none;stroke-width:1.01132381"
       transform="scale(1.0113239,0.98880293)"
       aria-label="x">
      <path
         id="path821"
         style="stroke-width:1.01132381"
         d="M 2.4292788,0.36447287 2.1626212,0.72330849 2.4431055,1.1018965 H 2.3002297 L 2.0855867,0.81219437 1.8709438,1.1018965 H 1.7280679 L 2.014478,0.71606593 1.7524292,0.36447287 H 1.8953051 L 2.090854,0.62718005 2.286403,0.36447287 Z" />
    </g>
    <g
       id="text1506-3"
       style="font-style:normal;font-weight:normal;font-size:1.34843183px;line-height:1.25;font-family:sans-serif;letter-spacing:0px;word-spacing:0px;fill:#000000;fill-opacity:1;stroke:none;stroke-width:1.01132381"
       transform="scale(1.0113239,0.98880293)"
       aria-label="y">
      <path
         id="path824"
         style="stroke-width:1.01132381"
         d="m 15.185718,14.020038 q -0.05136,0.131683 -0.100079,0.171846 -0.04872,0.04016 -0.130366,0.04016 h -0.09679 v -0.101396 h 0.07111 q 0.05004,0 0.07769,-0.0237 0.02765,-0.0237 0.06123,-0.111931 l 0.02173,-0.05531 -0.298261,-0.725572 h 0.12839 l 0.230445,0.576771 0.230445,-0.576771 h 0.128391 z" />
    </g>
    <path
       style="fill:none;stroke:#ab0000;stroke-width:0.79100001;stroke-linecap:butt;stroke-linejoin:miter;stroke-miterlimit:4;stroke-dasharray:none;stroke-opacity:1"
       d="m 2.3411871,1.6216355 1.1299916,10.2954955 2.1696355,1.259535 0.8814594,-2.620225 2.0566516,1.722793 1.3108256,-1.435289 0.7571552,-7.229966 1.88707,2.8198784 1.604586,-2.247101 1.378587,3.7808316"
       id="path1569" />
    <g
       id="text1573"
       style="font-style:normal;font-weight:normal;font-size:1.34843183px;line-height:1.25;font-family:sans-serif;letter-spacing:0px;word-spacing:0px;fill:#000000;fill-opacity:1;stroke:none;stroke-width:1.01132381"
       transform="scale(1.0113239,0.98880293)"
       aria-label="0">
      <path
         id="path827"
         style="stroke-width:1.01132381"
         d="m 0.5853902,15.103379 q -0.10271258,0 -0.15472728,0.101396 -0.0513563,0.100737 -0.0513563,0.303529 0,0.202133 0.0513563,0.303529 0.0520147,0.100737 0.15472728,0.100737 0.103371,0 0.15472729,-0.100737 0.0520147,-0.101396 0.0520147,-0.303529 0,-0.202792 -0.0520147,-0.303529 Q 0.6887612,15.103379 0.5853902,15.103379 Z m 0,-0.105346 q 0.16526191,0 0.25217256,0.131024 0.0875691,0.130366 0.0875691,0.379247 0,0.248222 -0.0875691,0.379246 -0.0869106,0.130366 -0.25217256,0.130366 -0.1652619,0 -0.25283096,-0.130366 -0.0869106,-0.131024 -0.0869106,-0.379246 0,-0.248881 0.0869106,-0.379247 0.0875691,-0.131024 0.25283096,-0.131024 z" />
    </g>
  </g>
</svg>
