<?xml version="1.0" encoding="UTF-8" standalone="no"?>
<svg
   xmlns:dc="http://purl.org/dc/elements/1.1/"
   xmlns:cc="http://creativecommons.org/ns#"
   xmlns:rdf="http://www.w3.org/1999/02/22-rdf-syntax-ns#"
   xmlns:svg="http://www.w3.org/2000/svg"
   xmlns="http://www.w3.org/2000/svg"
   width="16px"
   height="16px"
   viewBox="0 0 16 16"
   version="1.1"
   id="SVGRoot">
  <defs
     id="defs815" />
  <metadata
     id="metadata818">
    <rdf:RDF>
      <cc:Work
         rdf:about="">
        <dc:format>image/svg+xml</dc:format>
        <dc:type
           rdf:resource="http://purl.org/dc/dcmitype/StillImage" />
        <dc:title></dc:title>
      </cc:Work>
    </rdf:RDF>
  </metadata>
  <g
     id="layer1">
    <g
       id="text1376"
       style="font-style:normal;font-weight:normal;font-size:14.66666698px;line-height:1.25;font-family:sans-serif;letter-spacing:0px;word-spacing:0px;fill:#000000;fill-opacity:1;stroke:none"
       aria-label="θ">
      <path
         id="path815"
         style=""
         d="M 10.277344,8.4619143 H 5.7154948 q 0.1074219,2.1412757 0.6015626,3.0507817 0.6158854,1.117187 1.6829427,1.117187 1.0742188,0 1.6686198,-1.124349 0.5227861,-0.988281 0.6087241,-3.0436197 z m -0.02148,-1.217448 q -0.200521,-2.0338542 -0.5872401,-2.75 -0.6158854,-1.1315105 -1.6686198,-1.1315105 -1.0957032,0 -1.6757813,1.1171876 -0.4583333,0.9023437 -0.594401,2.7643229 z M 8.0000001,2.2887371 q 1.71875,0 2.6998699,1.5182292 0.98112,1.5110677 0.98112,4.1894532 0,2.6712235 -0.98112,4.1894535 -0.9811199,1.52539 -2.6998699,1.52539 -1.7259115,0 -2.6998699,-1.52539 -0.9811198,-1.51823 -0.9811198,-4.1894535 0,-2.6783855 0.9811198,-4.1894532 0.9739584,-1.5182292 2.6998699,-1.5182292 z" />
    </g>
  </g>
</svg>
