<?xml version="1.0" encoding="UTF-8" standalone="no"?>
<svg
   xmlns:dc="http://purl.org/dc/elements/1.1/"
   xmlns:cc="http://creativecommons.org/ns#"
   xmlns:rdf="http://www.w3.org/1999/02/22-rdf-syntax-ns#"
   xmlns:svg="http://www.w3.org/2000/svg"
   xmlns="http://www.w3.org/2000/svg"
   width="16px"
   height="16px"
   viewBox="0 0 16 16"
   version="1.1"
   id="SVGRoot">
  <defs
     id="defs815" />
  <metadata
     id="metadata818">
    <rdf:RDF>
      <cc:Work
         rdf:about="">
        <dc:format>image/svg+xml</dc:format>
        <dc:type
           rdf:resource="http://purl.org/dc/dcmitype/StillImage" />
        <dc:title></dc:title>
      </cc:Work>
    </rdf:RDF>
  </metadata>
  <g
     id="layer1">
    <path
       style="fill:none;stroke:#000000;stroke-width:0.7;stroke-linecap:butt;stroke-linejoin:miter;stroke-miterlimit:4;stroke-dasharray:none;stroke-opacity:1"
       d="M 0.5584062,14.538626 H 15.744053"
       id="path1500" />
    <path
       style="fill:none;stroke:#000000;stroke-width:0.7;stroke-linecap:butt;stroke-linejoin:miter;stroke-miterlimit:4;stroke-dasharray:none;stroke-opacity:1"
       d="M 1.2393726,15.2155 V 0.3965878"
       id="path1502" />
    <g
       id="text1506"
       style="font-style:normal;font-weight:normal;font-size:1.34843183px;line-height:1.25;font-family:sans-serif;letter-spacing:0px;word-spacing:0px;fill:#000000;fill-opacity:1;stroke:none;stroke-width:1.01132381"
       transform="scale(1.0113239,0.98880293)"
       aria-label="x">
      <path
         id="path828"
         style="stroke-width:1.01132381"
         d="M 2.4292788,0.36447287 2.1626212,0.72330849 2.4431055,1.1018965 H 2.3002297 L 2.0855867,0.81219437 1.8709438,1.1018965 H 1.7280679 L 2.014478,0.71606593 1.7524292,0.36447287 H 1.8953051 L 2.090854,0.62718005 2.286403,0.36447287 Z" />
    </g>
    <g
       id="text1506-3"
       style="font-style:normal;font-weight:normal;font-size:1.34843183px;line-height:1.25;font-family:sans-serif;letter-spacing:0px;word-spacing:0px;fill:#000000;fill-opacity:1;stroke:none;stroke-width:1.01132381"
       transform="scale(1.0113239,0.98880293)"
       aria-label="y">
      <path
         id="path831"
         style="stroke-width:1.01132381"
         d="m 15.185718,14.020038 q -0.05136,0.131683 -0.100079,0.171846 -0.04872,0.04016 -0.130366,0.04016 h -0.09679 v -0.101396 h 0.07111 q 0.05004,0 0.07769,-0.0237 0.02765,-0.0237 0.06123,-0.111931 l 0.02173,-0.05531 -0.298261,-0.725572 h 0.12839 l 0.230445,0.576771 0.230445,-0.576771 h 0.128391 z" />
    </g>
    <path
       style="fill:none;stroke:#ab0000;stroke-width:0.891;stroke-linecap:butt;stroke-linejoin:miter;stroke-miterlimit:4;stroke-dasharray:none;stroke-opacity:1"
       d="m 2.7479668,1.0453643 c 0,0 -0.2649493,8.9334997 0.7232119,10.8717667 0.9881611,1.938267 1.3445307,1.123494 2.1696355,1.259535 0.5546826,0.09145 1.0932389,-0.283601 1.6531755,-0.333678 0.7418957,-0.06635 1.4986409,0.164436 2.234088,0.04641 0.4811193,-0.07721 0.8960793,-0.418396 1.3786223,-0.486136 0.350326,-0.04918 0.710514,0.005 1.059369,0.06371 0.437806,0.07368 0.838845,0.341071 1.28242,0.359622 0.300147,0.01255 0.614327,-0.300264 0.885041,-0.170035 0.206862,0.09951 0.320589,0.609486 0.320589,0.609486"
       id="path1569" />
    <g
       id="text1573"
       style="font-style:normal;font-weight:normal;font-size:1.34843183px;line-height:1.25;font-family:sans-serif;letter-spacing:0px;word-spacing:0px;fill:#000000;fill-opacity:1;stroke:none;stroke-width:1.01132381"
       transform="scale(1.0113239,0.98880293)"
       aria-label="0">
      <path
         id="path834"
         style="stroke-width:1.01132381"
         d="m 0.5853902,15.103379 q -0.10271258,0 -0.15472728,0.101396 -0.0513563,0.100737 -0.0513563,0.303529 0,0.202133 0.0513563,0.303529 0.0520147,0.100737 0.15472728,0.100737 0.103371,0 0.15472729,-0.100737 0.0520147,-0.101396 0.0520147,-0.303529 0,-0.202792 -0.0520147,-0.303529 Q 0.6887612,15.103379 0.5853902,15.103379 Z m 0,-0.105346 q 0.16526191,0 0.25217256,0.131024 0.0875691,0.130366 0.0875691,0.379247 0,0.248222 -0.0875691,0.379246 -0.0869106,0.130366 -0.25217256,0.130366 -0.1652619,0 -0.25283096,-0.130366 -0.0869106,-0.131024 -0.0869106,-0.379246 0,-0.248881 0.0869106,-0.379247 0.0875691,-0.131024 0.25283096,-0.131024 z" />
    </g>
    <path
       style="fill:none;stroke:#232323;stroke-width:1;stroke-linecap:butt;stroke-linejoin:miter;stroke-miterlimit:4;stroke-dasharray:none;stroke-opacity:1"
       d="M 2.078125,13.78125 6.9633883,9.2979854"
       id="path1634" />
    <path
       style="fill:none;stroke:#ab0000;stroke-width:0.5;stroke-linecap:butt;stroke-linejoin:miter;stroke-miterlimit:4;stroke-dasharray:none;stroke-opacity:1"
       d="m 6.625,8.859375 c 0,0 0.7032447,0.027534 1.015625,-0.15625 C 7.9530053,8.5193405 7.8446904,8.1841191 8.0273437,8.0429688 8.209997,7.9018185 8.2637066,8.0491723 8.5625,7.703125 8.8612934,7.3570777 9.0348702,5.2580478 9.203125,5.28125 c 0.1967058,0.027126 0.3131054,2.2646933 0.390625,2.265625 0.1207051,0.00145 0.569701,-1.6085765 0.75,-1.609375 0.125099,-5.541e-4 0.16814,1.3331871 0.46875,1.671875 0.30061,0.3386879 0.589477,0.1318522 0.928347,0.3197573 0.33887,0.1879051 1.071653,0.8364927 1.071653,0.8364927"
       id="path1638" />
    <path
       id="path1632"
       d="M 13.523417,6.6308351 A 3.800699,3.800699 0 0 1 9.7227182,10.431534 3.800699,3.800699 0 0 1 5.9220192,6.6308351 3.800699,3.800699 0 0 1 9.7227182,2.8301361 3.800699,3.800699 0 0 1 13.523417,6.6308351 Z"
       style="fill:none;fill-opacity:1;stroke:#676767;stroke-width:0.60000002;stroke-linecap:butt;stroke-miterlimit:4;stroke-dasharray:none;stroke-opacity:1" />
    <path
       style="fill:none;stroke:#676767;stroke-width:0.20288578;stroke-linecap:butt;stroke-linejoin:miter;stroke-miterlimit:4;stroke-dasharray:none;stroke-opacity:1"
       d="m 11.209708,10.64408 0.744971,0.95631 -0.147938,-1.231052"
       id="path1636" />
  </g>
</svg>
