<?xml version="1.0" encoding="UTF-8" standalone="no"?>
<svg
   xmlns:dc="http://purl.org/dc/elements/1.1/"
   xmlns:cc="http://creativecommons.org/ns#"
   xmlns:rdf="http://www.w3.org/1999/02/22-rdf-syntax-ns#"
   xmlns:svg="http://www.w3.org/2000/svg"
   xmlns="http://www.w3.org/2000/svg"
   xmlns:sodipodi="http://sodipodi.sourceforge.net/DTD/sodipodi-0.dtd"
   xmlns:inkscape="http://www.inkscape.org/namespaces/inkscape"
   id="SVGRoot"
   version="1.1"
   viewBox="0 0 16 16"
   height="16px"
   width="16px"
   sodipodi:docname="zoom.svg"
   inkscape:version="0.92.3 (2405546, 2018-03-11)">
  <sodipodi:namedview
     pagecolor="#ffffff"
     bordercolor="#666666"
     borderopacity="1"
     objecttolerance="10"
     gridtolerance="10"
     guidetolerance="10"
     inkscape:pageopacity="0"
     inkscape:pageshadow="2"
     inkscape:window-width="1613"
     inkscape:window-height="995"
     id="namedview19"
     showgrid="false"
     inkscape:zoom="59"
     inkscape:cx="8.3844607"
     inkscape:cy="5.5472473"
     inkscape:window-x="67"
     inkscape:window-y="27"
     inkscape:window-maximized="1"
     inkscape:current-layer="SVGRoot" />
  <defs
     id="defs815" />
  <metadata
     id="metadata818">
    <rdf:RDF>
      <cc:Work
         rdf:about="">
        <dc:format>image/svg+xml</dc:format>
        <dc:type
           rdf:resource="http://purl.org/dc/dcmitype/StillImage" />
        <dc:title />
      </cc:Work>
    </rdf:RDF>
  </metadata>
  <g
     id="layer1">
    <path
       id="path1500"
       d="M 0.5584062,14.538626 H 15.744053"
       style="fill:none;stroke:#000000;stroke-width:0.7;stroke-linecap:butt;stroke-linejoin:miter;stroke-miterlimit:4;stroke-dasharray:none;stroke-opacity:1" />
    <path
       id="path1502"
       d="M 1.2393726,15.2155 V 0.3965878"
       style="fill:none;stroke:#000000;stroke-width:0.7;stroke-linecap:butt;stroke-linejoin:miter;stroke-miterlimit:4;stroke-dasharray:none;stroke-opacity:1" />
    <text
       transform="scale(1.0113239,0.98880293)"
       id="text1506"
       y="1.1018965"
       x="1.6892215"
       style="font-style:normal;font-weight:normal;font-size:1.34843183px;line-height:1.25;font-family:sans-serif;letter-spacing:0px;word-spacing:0px;fill:#000000;fill-opacity:1;stroke:none;stroke-width:1.01132381"
       xml:space="preserve"><tspan
         style="stroke-width:1.01132381"
         y="1.1018965"
         x="1.6892215"
         id="tspan1504">x</tspan></text>
    <text
       transform="scale(1.0113239,0.98880293)"
       id="text1506-3"
       y="13.951563"
       x="14.751823"
       style="font-style:normal;font-weight:normal;font-size:1.34843183px;line-height:1.25;font-family:sans-serif;letter-spacing:0px;word-spacing:0px;fill:#000000;fill-opacity:1;stroke:none;stroke-width:1.01132381"
       xml:space="preserve"><tspan
         style="stroke-width:1.01132381"
         y="13.951563"
         x="14.751823"
         id="tspan1504-6">y</tspan></text>
    <path
       id="path1569"
       d="m 2.7479668,1.0453643 c 0,0 -0.2649493,8.9334997 0.7232119,10.8717667 0.9881611,1.938267 1.3445307,1.123494 2.1696355,1.259535 0.5546826,0.09145 1.0932389,-0.283601 1.6531755,-0.333678 0.7418957,-0.06635 1.4986409,0.164436 2.234088,0.04641 0.4811193,-0.07721 0.8960793,-0.418396 1.3786223,-0.486136 0.350326,-0.04918 0.710514,0.005 1.059369,0.06371 0.437806,0.07368 0.838845,0.341071 1.28242,0.359622 0.300147,0.01255 0.614327,-0.300264 0.885041,-0.170035 0.206862,0.09951 0.320589,0.609486 0.320589,0.609486"
       style="fill:none;stroke:#ab0000;stroke-width:0.891;stroke-linecap:butt;stroke-linejoin:miter;stroke-miterlimit:4;stroke-dasharray:none;stroke-opacity:1" />
    <text
       transform="scale(1.0113239,0.98880293)"
       xml:space="preserve"
       style="font-style:normal;font-weight:normal;font-size:1.34843183px;line-height:1.25;font-family:sans-serif;letter-spacing:0px;word-spacing:0px;fill:#000000;fill-opacity:1;stroke:none;stroke-width:1.01132381"
       x="0.1567627"
       y="15.998822"
       id="text1573"><tspan
         style="stroke-width:1.01132381"
         id="tspan1571"
         x="0.1567627"
         y="15.998822">0</tspan></text>
    <path
       id="path1634"
       d="M 2.078125,13.78125 6.9633883,9.2979854"
       style="fill:none;stroke:#232323;stroke-width:1;stroke-linecap:butt;stroke-linejoin:miter;stroke-miterlimit:4;stroke-dasharray:none;stroke-opacity:1" />
    <path
       id="path1638"
       d="m 6.625,8.859375 c 0,0 0.7032447,0.027534 1.015625,-0.15625 C 7.9530053,8.5193405 7.8446904,8.1841191 8.0273437,8.0429688 8.209997,7.9018185 8.2637066,8.0491723 8.5625,7.703125 8.8612934,7.3570777 9.0348702,5.2580478 9.203125,5.28125 c 0.1967058,0.027126 0.3131054,2.2646933 0.390625,2.265625 0.1207051,0.00145 0.569701,-1.6085765 0.75,-1.609375 0.125099,-5.541e-4 0.16814,1.3331871 0.46875,1.671875 0.30061,0.3386879 0.589477,0.1318522 0.928347,0.3197573 0.33887,0.1879051 1.071653,0.8364927 1.071653,0.8364927"
       style="fill:none;stroke:#ab0000;stroke-width:0.5;stroke-linecap:butt;stroke-linejoin:miter;stroke-miterlimit:4;stroke-dasharray:none;stroke-opacity:1" />
    <circle
       r="3.800699"
       cy="6.6308351"
       cx="9.7227182"
       id="path1632"
       style="fill:none;fill-opacity:1;stroke:#676767;stroke-width:0.6;stroke-linecap:butt;stroke-miterlimit:4;stroke-dasharray:none;stroke-opacity:1" />
    <path
       id="path1636"
       d="m 11.209708,10.64408 0.744971,0.95631 -0.147938,-1.231052"
       style="fill:none;stroke:#676767;stroke-width:0.20288578;stroke-linecap:butt;stroke-linejoin:miter;stroke-miterlimit:4;stroke-dasharray:none;stroke-opacity:1"
       inkscape:connector-curvature="0" />
  </g>
</svg>
